# xmcd CD database file
# Copyright (C) 1997 Ti Kan
# 
# Track frame offsets:
#     150
#     17043
#     32955
#     48358
#     62180
#     77015
#     91243
#     105783
#     123333
#     137863
#     154610
#     168580
#     184518
#     199310
#     219380
#     228808
# 
# Disc length: 3262 seconds
# 
# Revision: 1
# Processed by: cddbd v1.4b41PL1 Copyright (c) Steve Scherf et al.
# Submitted via: DiscPlay 4.0.4
# 
DISCID=cc0cbc10
DTITLE=Glenn Miller Orquestra - Moonlight Serenade
DYEAR=1900
DGENRE=
TTITLE0=Moonlight Serenade
TTITLE1=In The Mood
TTITLE2=Tuxedo Junction
TTITLE3=Pennsylvania 6-5000
TTITLE4=Perfidia
TTITLE5=The American Patrol
TTITLE6=Rhapsody In Blue
TTITLE7=Serenade In Blue
TTITLE8=A String Of Pearls
TTITLE9=Chatabooga Choo Choo
TTITLE10=Little Brown Jug
TTITLE11=Anvil Chorus
TTITLE12=Moonlight Cocktail
TTITLE13=St. Louis Blues March
TTITLE14=Now Is The Hour
TTITLE15=Sunrise Serenade
EXTD=
EXTT0=
EXTT1=
EXTT2=
EXTT3=
EXTT4=
EXTT5=
EXTT6=
EXTT7=
EXTT8=
EXTT9=
EXTT10=
EXTT11=
EXTT12=
EXTT13=
EXTT14=
EXTT15=
PLAYORDER=
